<svg width="176" height="55" viewBox="0 0 176 55" fill="none" xmlns="http://www.w3.org/2000/svg">
<path fill-rule="evenodd" clip-rule="evenodd" d="M38.4354 36.2603C39.3712 32.9574 39.8391 29.6784 39.8391 26.4234C39.8391 23.264 39.5049 20.1287 38.8365 17.0172C38.2126 13.8579 37.1653 11.0337 35.6948 8.54451C34.2688 6.00748 32.3748 3.94914 30.013 2.36949C27.6512 0.789828 24.7546 0 21.3233 0C19.318 0 17.3795 0.430816 15.5078 1.29245C13.6808 2.15408 11.9651 3.32685 10.3608 4.81077C8.80115 6.24683 7.37514 7.94616 6.08282 9.90876C4.83506 11.8235 3.74327 13.834 2.80745 15.9402C1.9162 18.0464 1.22548 20.1765 0.735286 22.3306C0.245095 24.4847 0 26.543 0 28.5056C0 31.282 0.423346 34.178 1.27004 37.1938C1.73657 38.7473 2.30078 40.2418 2.96267 41.6772C2.41079 42.2787 1.89573 42.8536 1.42283 43.396C0.597336 44.3429 -1.68971 48.7879 3.41591 44.7199C3.65109 44.5325 3.91228 44.3212 4.19739 44.088C4.45827 44.549 4.73024 45.0034 5.01331 45.4511C6.66213 47.9402 8.64518 49.9986 10.9624 51.6261C13.2797 53.2536 15.8866 54.0674 18.7832 54.0674C22.2145 54.0674 25.2448 53.2297 27.874 51.5543C30.5032 49.9268 32.6868 47.7966 34.4247 45.1638C36.2072 42.4832 37.5441 39.5154 38.4354 36.2603ZM12.6023 36.9327C12.7176 37.2139 12.8394 37.4923 12.9678 37.7682C13.6362 39.1564 14.4829 40.3531 15.5078 41.3583C16.5773 42.3157 17.8251 42.7944 19.2511 42.7944C20.9891 42.7944 22.5265 42.2199 23.8634 41.0711C25.2448 39.8744 26.3812 38.4383 27.2724 36.7629C28.2082 35.0397 28.9212 33.2207 29.4114 31.3059C29.9016 29.3433 30.1467 27.5961 30.1467 26.0643C30.1467 24.8931 29.9973 23.5155 29.6985 21.9316C24.6041 26.4409 18.0555 32.2063 12.6023 36.9327ZM11.473 33.1206C17.2375 27.6953 23.8113 22.1561 28.9195 18.9867C28.7105 18.3869 28.4734 17.8022 28.2082 17.2326C27.5844 15.7966 26.7599 14.5759 25.735 13.5707C24.7101 12.5655 23.4846 12.0628 22.0586 12.0628C20.3206 12.0628 18.7609 12.6612 17.3795 13.8579C16.0426 15.0067 14.9062 16.4428 13.9704 18.1661C13.0346 19.8893 12.2993 21.7323 11.7646 23.6949C11.2744 25.6575 11.0293 27.4286 11.0293 29.0083C11.0293 30.2202 11.1772 31.591 11.473 33.1206Z" fill="#141619"/>
<path d="M176 42.1236C176 43.2565 175.529 44.3214 174.588 45.3183C173.692 46.3153 172.504 47.2216 171.025 48.0373C169.591 48.853 167.978 49.578 166.185 50.2124C164.392 50.8016 162.622 51.3 160.874 51.7079C159.126 52.161 157.468 52.5009 155.899 52.7275C154.375 52.9541 153.165 53.0673 152.269 53.0673C151.417 53.0673 150.499 52.9767 149.513 52.7955C148.571 52.6595 147.787 52.3196 147.16 51.7758C146.801 51.504 146.487 50.8922 146.219 49.9406C145.95 48.9889 145.681 47.856 145.412 46.5419C145.188 45.2277 144.986 43.8229 144.807 42.3275C144.628 40.7867 144.471 39.2913 144.336 37.8412C144.247 36.3911 144.157 35.0543 144.067 33.8308C144.022 32.6072 144 31.6556 144 30.9758C144 29.8429 144.022 28.4835 144.067 26.8974C144.157 25.266 144.269 23.544 144.403 21.7314C144.538 19.8735 144.717 17.9928 144.941 16.0896C145.165 14.1863 145.412 12.3963 145.681 10.7196C145.994 8.99763 146.353 7.45689 146.756 6.09742C147.205 4.73794 147.675 3.67302 148.168 2.90265C149.02 1.67912 150.095 1.06735 151.395 1.06735C152.291 1.06735 153.053 1.38456 153.681 2.01899C154.308 2.60809 154.801 3.40112 155.16 4.39807C155.563 5.3497 155.854 6.43729 156.034 7.66082C156.258 8.83903 156.415 10.0172 156.504 11.1955C156.594 12.3737 156.639 13.4613 156.639 14.4582C156.639 15.4551 156.639 16.2482 156.639 16.8373C156.639 20.3719 156.549 23.8839 156.37 27.3732C156.235 30.8172 156.168 34.3066 156.168 37.8412V40.4922C158.185 39.8578 160.381 39.2687 162.756 38.7249C165.132 38.1358 167.395 37.8412 169.546 37.8412C170.308 37.8412 171.07 37.8865 171.832 37.9772C172.639 38.0678 173.333 38.2717 173.916 38.5889C174.543 38.8608 175.036 39.2913 175.395 39.8804C175.798 40.4242 176 41.1719 176 42.1236Z" fill="#141619"/>
<path d="M72.0001 16.1666C72.0001 16.8853 71.8629 17.6489 71.5886 18.4574C71.3142 19.221 70.9713 20.0071 70.5598 20.8156C70.1483 21.6241 69.7139 22.4101 69.2567 23.1737C68.7995 23.8924 68.388 24.5662 68.0222 25.195C67.1077 26.6324 66.1933 28.0922 65.2788 29.5744C64.4101 31.0567 63.5185 32.5165 62.604 33.9539C63.0155 34.5827 63.5871 35.4586 64.3186 36.5815C65.0502 37.7045 65.7589 38.8948 66.4447 40.1525C67.1763 41.3652 67.7936 42.578 68.2965 43.7908C68.7995 45.0035 69.0509 46.0366 69.0509 46.89C69.0509 47.6986 68.7309 48.4846 68.0908 49.2482C67.4506 50.0118 66.6734 50.3936 65.7589 50.3936C64.7987 50.3936 63.8157 50.0567 62.8098 49.383C61.8496 48.7092 60.8894 47.9231 59.9293 47.0248C59.0148 46.0815 58.1689 45.1158 57.3917 44.1276C56.6144 43.0945 55.9514 42.2411 55.4027 41.5674C54.8083 42.1962 54.031 43.0496 53.0709 44.1276C52.1564 45.2057 51.1505 46.2612 50.0532 47.2943C49.0015 48.3274 47.9499 49.2257 46.8983 49.9893C45.8467 50.708 44.9094 51.0674 44.0863 51.0674C43.1262 51.0674 42.3717 50.7305 41.8231 50.0567C41.2744 49.383 41.0001 48.5969 41.0001 47.6986C41.0001 46.8002 41.2973 45.6548 41.8917 44.2624C42.5318 42.87 43.2633 41.4326 44.0863 39.9503C44.9551 38.4681 45.8009 37.0532 46.624 35.7056C47.4927 34.3581 48.1557 33.3026 48.6129 32.539C48.1557 31.7305 47.5841 30.6749 46.8983 29.3723C46.2124 28.0248 45.5495 26.6324 44.9094 25.195C44.315 23.7127 43.7891 22.2754 43.3319 20.883C42.9204 19.4456 42.7147 18.2553 42.7147 17.312C42.7147 16.2789 43.0347 15.448 43.6748 14.8191C44.315 14.1903 45.1608 13.8759 46.2125 13.8759C47.3555 13.8759 48.43 14.325 49.4359 15.2234C50.4418 16.0768 51.3791 17.1324 52.2478 18.39C53.1166 19.6028 53.871 20.883 54.5111 22.2305C55.197 23.5331 55.7456 24.6111 56.1571 25.4645C56.7058 24.656 57.4602 23.5555 58.4204 22.1631C59.4263 20.7707 60.5465 19.4007 61.781 18.0532C63.0155 16.7057 64.2958 15.5378 65.6217 14.5496C66.9477 13.5614 68.2051 13.0674 69.3939 13.0674C70.1712 13.0674 70.7884 13.4042 71.2456 14.078C71.7486 14.7068 72.0001 15.403 72.0001 16.1666Z" fill="#141619"/>
<path d="M107 15.242C107 17.7028 106.447 20.118 105.341 22.4876C104.282 24.8572 102.853 26.999 101.056 28.9129C99.2592 30.7813 97.2088 32.3306 94.905 33.561C92.6012 34.7458 90.2283 35.4066 87.7862 35.5433C87.7402 36.3636 87.6941 37.4117 87.648 38.6876C87.648 39.918 87.5789 41.2167 87.4407 42.5838C87.3024 43.9509 87.0951 45.318 86.8186 46.6851C86.5883 48.0522 86.2196 49.2825 85.7128 50.3762C85.252 51.4699 84.63 52.3585 83.8467 53.042C83.1095 53.7256 82.188 54.0674 81.0821 54.0674C79.792 54.0674 78.7553 53.6344 77.972 52.7686C77.2348 51.9484 76.6588 50.9458 76.2441 49.761C75.8755 48.5762 75.6221 47.3458 75.4839 46.0699C75.3456 44.7484 75.2535 43.6319 75.2074 42.7205C75.1153 41.399 75.0461 40.1003 75.0001 38.8243C75.0001 37.5484 75.0001 36.2496 75.0001 34.9281C75.0001 34.3357 75.0001 33.242 75.0001 31.6471C75.0001 30.0066 75.0001 28.161 75.0001 26.1104C75.0461 24.0142 75.0922 21.8496 75.1383 19.6167C75.1844 17.3382 75.2535 15.242 75.3456 13.3281C75.4378 11.3686 75.5299 9.70533 75.6221 8.33824C75.7603 6.97115 75.9216 6.17368 76.1059 5.94583C76.152 5.90026 76.2902 5.80912 76.5206 5.67242C76.751 5.49014 77.0044 5.33064 77.2808 5.19393C77.5573 5.01166 77.8107 4.85216 78.0411 4.71545C78.2715 4.57874 78.4328 4.48761 78.5249 4.44204C80.6444 3.25723 82.9713 2.23191 85.5055 1.36609C88.0397 0.500264 90.5508 0.0673523 93.0389 0.0673523C95.1585 0.0673523 97.0706 0.500264 98.7754 1.36609C100.526 2.18634 102.001 3.3028 103.199 4.71545C104.443 6.08254 105.387 7.70026 106.032 9.56862C106.678 11.3914 107 13.2825 107 15.242ZM95.0433 16.8142C95.0433 15.9028 94.8129 15.1053 94.3521 14.4218C93.9374 13.7382 93.2232 13.3965 92.2096 13.3965C91.3341 13.3965 90.4587 13.5787 89.5832 13.9433C88.7078 14.2623 87.9014 14.6041 87.1642 14.9686C87.3024 16.5636 87.4176 18.1129 87.5098 19.6167C87.648 21.1205 87.671 22.6699 87.5789 24.2648C88.3161 23.9003 89.1225 23.4901 89.9979 23.0344C90.8734 22.5332 91.6797 21.9863 92.4169 21.3939C93.1541 20.8015 93.7762 20.1408 94.283 19.4117C94.7898 18.637 95.0433 17.7711 95.0433 16.8142Z" fill="#141619"/>
<path d="M141 15.242C141 17.7028 140.464 20.118 139.393 22.4876C138.366 24.8572 136.983 26.999 135.242 28.9129C133.501 30.7813 131.515 32.3306 129.283 33.561C127.051 34.7458 124.752 35.4066 122.387 35.5433C122.342 36.3636 122.297 37.4117 122.253 38.6876C122.253 39.918 122.186 41.2167 122.052 42.5838C121.918 43.9509 121.717 45.318 121.449 46.6851C121.226 48.0522 120.869 49.2825 120.378 50.3762C119.932 51.4699 119.329 52.3585 118.57 53.042C117.856 53.7256 116.963 54.0674 115.892 54.0674C114.642 54.0674 113.638 53.6344 112.879 52.7686C112.165 51.9484 111.607 50.9458 111.205 49.761C110.848 48.5762 110.603 47.3458 110.469 46.0699C110.335 44.7484 110.246 43.6319 110.201 42.7205C110.112 41.399 110.045 40.1003 110 38.8243C110 37.5484 110 36.2496 110 34.9281C110 34.3357 110 33.242 110 31.6471C110 30.0066 110 28.161 110 26.1104C110.045 24.0142 110.089 21.8496 110.134 19.6167C110.179 17.3382 110.246 15.242 110.335 13.3281C110.424 11.3686 110.513 9.70533 110.603 8.33824C110.737 6.97115 110.893 6.17368 111.071 5.94583C111.116 5.90026 111.25 5.80912 111.473 5.67242C111.696 5.49014 111.942 5.33064 112.21 5.19393C112.477 5.01166 112.723 4.85216 112.946 4.71545C113.169 4.57874 113.325 4.48761 113.415 4.44204C115.468 3.25723 117.722 2.23191 120.177 1.36609C122.632 0.500264 125.065 0.0673523 127.475 0.0673523C129.529 0.0673523 131.381 0.500264 133.032 1.36609C134.729 2.18634 136.157 3.3028 137.318 4.71545C138.523 6.08254 139.438 7.70026 140.063 9.56862C140.688 11.3914 141 13.2825 141 15.242ZM129.417 15.3807C129.417 14.4693 129.194 13.6718 128.747 12.9883C128.346 12.3047 127.654 11.963 126.672 11.963C125.824 11.963 124.976 12.1453 124.127 12.5098C123.279 12.8288 122.498 13.1706 121.784 13.5351C121.918 15.1301 122.03 16.6794 122.119 18.1832C122.253 19.687 122.275 21.2364 122.186 22.8313C122.9 22.4668 123.681 22.0566 124.529 21.601C125.377 21.0997 126.158 20.5528 126.873 19.9604C127.587 19.368 128.189 18.7073 128.68 17.9782C129.171 17.2035 129.417 16.3377 129.417 15.3807Z" fill="#141619"/>
</svg>
