<svg width="11" height="10" viewBox="0 0 11 10" fill="none" xmlns="http://www.w3.org/2000/svg">
<path d="M6.41847 1.23023L6.41855 1.23015C6.86935 0.760059 7.47637 0.5 8.10473 0.5C8.7331 0.5 9.34012 0.760059 9.79092 1.23015L9.79108 1.23032C10.2428 1.70088 10.5 2.3435 10.5 3.0177C10.5 3.69191 10.2428 4.33453 9.79108 4.80509L9.791 4.80518L9.23319 5.38658L5.49986 9.27779L1.76653 5.38658L1.20872 4.80518C0.263761 3.82026 0.263761 2.21515 1.20872 1.23023C2.14248 0.256981 3.64749 0.256981 4.58125 1.23023L5.13906 1.81163C5.23336 1.90991 5.36366 1.96547 5.49986 1.96547C5.63606 1.96547 5.76636 1.90991 5.86066 1.81163L6.41847 1.23023Z" stroke="#687684" stroke-linecap="round" stroke-linejoin="round"/>
</svg>
