<svg width="26" height="16" viewBox="0 0 26 16" fill="none" xmlns="http://www.w3.org/2000/svg">
<path d="M5.3241 3.13531C6.32468 2.15188 7.5189 1.37061 8.83685 0.837251C10.1548 0.303896 11.57 0.0291748 12.9995 0.0291748C14.4291 0.0291748 15.8442 0.303896 17.1622 0.837251C18.4801 1.37061 19.6744 2.15188 20.6749 3.13531L21.1848 3.6341C21.2867 3.73423 21.3438 3.86884 21.3438 4.00905C21.3438 4.14926 21.2867 4.28388 21.1848 4.38401L19.4399 6.08905C19.4149 6.11371 19.385 6.13329 19.352 6.14667C19.319 6.16004 19.2836 6.16693 19.2478 6.16693C19.212 6.16693 19.1766 6.16004 19.1436 6.14667C19.1106 6.13329 19.0807 6.11371 19.0557 6.08905L18.3537 5.40314C17.6557 4.71701 16.8226 4.17193 15.9032 3.79982C14.9837 3.4277 13.9965 3.23603 12.9992 3.23603C12.0019 3.23603 11.0146 3.4277 10.0951 3.79982C9.1757 4.17193 8.34259 4.71701 7.6446 5.40314L6.89349 6.13775C6.86846 6.1624 6.83858 6.18199 6.80559 6.19536C6.7726 6.20873 6.73717 6.21562 6.70138 6.21562C6.66558 6.21562 6.63015 6.20873 6.59716 6.19536C6.56417 6.18199 6.53429 6.1624 6.50926 6.13775L4.76365 4.43271C4.66176 4.33258 4.60468 4.19796 4.60468 4.05775C4.60468 3.91754 4.66176 3.78292 4.76365 3.68279L5.3241 3.13531ZM24.2839 6.66227L25.8366 8.17949C25.9385 8.27962 25.9956 8.41424 25.9956 8.55444C25.9956 8.69465 25.9385 8.82927 25.8366 8.9294L18.8333 15.7725C18.7832 15.8217 18.7235 15.8608 18.6576 15.8875C18.5917 15.9142 18.5209 15.9279 18.4494 15.9279C18.3779 15.9279 18.3071 15.9142 18.2412 15.8875C18.1753 15.8608 18.1156 15.8217 18.0655 15.7725L13.0952 10.9162C13.0827 10.9039 13.0678 10.8941 13.0513 10.8874C13.0348 10.8807 13.017 10.8772 12.9992 10.8772C12.9813 10.8772 12.9635 10.8807 12.947 10.8874C12.9306 10.8941 12.9156 10.9039 12.9031 10.9162L7.93276 15.7718C7.88273 15.821 7.82301 15.8601 7.7571 15.8868C7.69118 15.9135 7.6204 15.9272 7.5489 15.9272C7.4774 15.9272 7.40662 15.9135 7.34071 15.8868C7.2748 15.8601 7.21507 15.821 7.16504 15.7718L0.161654 8.9301C0.0597594 8.82997 0.00268555 8.69535 0.00268555 8.55514C0.00268555 8.41493 0.0597594 8.28031 0.161654 8.18018L1.71443 6.66297C1.76446 6.61377 1.82419 6.57468 1.8901 6.548C1.95601 6.52131 2.02679 6.50757 2.09829 6.50757C2.16979 6.50757 2.24057 6.52131 2.30649 6.548C2.3724 6.57468 2.43212 6.61377 2.48215 6.66297L7.45321 11.5193C7.46571 11.5315 7.4806 11.5412 7.49703 11.5479C7.51346 11.5545 7.53109 11.5579 7.5489 11.5579C7.56671 11.5579 7.58434 11.5545 7.60077 11.5479C7.6172 11.5412 7.6321 11.5315 7.6446 11.5193L12.6157 6.66297C12.6657 6.61387 12.7254 6.57488 12.7912 6.54826C12.857 6.52164 12.9277 6.50792 12.9992 6.50792C13.0706 6.50792 13.1413 6.52164 13.2071 6.54826C13.273 6.57488 13.3326 6.61387 13.3827 6.66297L18.3537 11.5193C18.3662 11.5316 18.3812 11.5414 18.3977 11.5481C18.4142 11.5548 18.4319 11.5583 18.4498 11.5583C18.4677 11.5583 18.4854 11.5548 18.5019 11.5481C18.5184 11.5414 18.5333 11.5316 18.5458 11.5193L23.5162 6.66297C23.5662 6.61377 23.6259 6.57468 23.6918 6.548C23.7577 6.52131 23.8285 6.50757 23.9 6.50757C23.9715 6.50757 24.0423 6.52131 24.1082 6.548C24.1741 6.57468 24.2338 6.61377 24.2839 6.66297V6.66227Z" fill="white"/>
</svg>
