<svg width="29" height="27" viewBox="0 0 29 27" fill="none" xmlns="http://www.w3.org/2000/svg">
<path d="M26.6911 1L16.1327 8.8125L18.0961 4.20834L26.6911 1Z" fill="#E17726" stroke="#E17726" stroke-width="0.25" stroke-linecap="round" stroke-linejoin="round"/>
<path d="M2.33679 1L12.8012 8.88541L10.9319 4.20833L2.33679 1Z" fill="#E27625" stroke="#E27625" stroke-width="0.25" stroke-linecap="round" stroke-linejoin="round"/>
<path d="M22.8894 19.1146L20.0801 23.4062L26.0956 25.0625L27.8188 19.2084L22.8894 19.1146Z" fill="#E27625" stroke="#E27625" stroke-width="0.25" stroke-linecap="round" stroke-linejoin="round"/>
<path d="M1.21924 19.2084L2.93197 25.0625L8.93703 23.4062L6.13814 19.1146L1.21924 19.2084Z" fill="#E27625" stroke="#E27625" stroke-width="0.25" stroke-linecap="round" stroke-linejoin="round"/>
<path d="M8.6132 11.8646L6.94226 14.3854L12.8951 14.6563L12.6967 8.25003L8.6132 11.8646Z" fill="#E27625" stroke="#E27625" stroke-width="0.25" stroke-linecap="round" stroke-linejoin="round"/>
<path d="M20.4143 11.8647L16.2683 8.17723L16.1325 14.6564L22.0853 14.3856L20.4143 11.8647Z" fill="#E27625" stroke="#E27625" stroke-width="0.25" stroke-linecap="round" stroke-linejoin="round"/>
<path d="M8.93713 23.4062L12.5401 21.6667L9.43844 19.25L8.93713 23.4062Z" fill="#E27625" stroke="#E27625" stroke-width="0.25" stroke-linecap="round" stroke-linejoin="round"/>
<path d="M16.4878 21.6667L20.0803 23.4062L19.5895 19.25L16.4878 21.6667Z" fill="#E27625" stroke="#E27625" stroke-width="0.25" stroke-linecap="round" stroke-linejoin="round"/>
<path d="M20.0803 23.4063L16.4878 21.6667L16.7802 24L16.7488 24.9896L20.0803 23.4063Z" fill="#D5BFB2" stroke="#D5BFB2" stroke-width="0.25" stroke-linecap="round" stroke-linejoin="round"/>
<path d="M8.93713 23.4063L12.2791 24.9896L12.2582 24L12.5401 21.6667L8.93713 23.4063Z" fill="#D5BFB2" stroke="#D5BFB2" stroke-width="0.25" stroke-linecap="round" stroke-linejoin="round"/>
<path d="M12.3416 17.7083L9.35474 16.8333L11.4643 15.8646L12.3416 17.7083Z" fill="#233447" stroke="#233447" stroke-width="0.25" stroke-linecap="round" stroke-linejoin="round"/>
<path d="M16.6862 17.7083L17.5634 15.8646L19.6835 16.8333L16.6862 17.7083Z" fill="#233447" stroke="#233447" stroke-width="0.25" stroke-linecap="round" stroke-linejoin="round"/>
<path d="M8.93703 23.4062L9.45924 19.1146L6.13818 19.2084L8.93703 23.4062Z" fill="#CC6228" stroke="#CC6228" stroke-width="0.25" stroke-linecap="round" stroke-linejoin="round"/>
<path d="M19.5685 19.1146L20.0803 23.4062L22.8896 19.2084L19.5685 19.1146Z" fill="#CC6228" stroke="#CC6228" stroke-width="0.25" stroke-linecap="round" stroke-linejoin="round"/>
<path d="M22.0853 14.3854L16.1325 14.6562L16.686 17.7083L17.5633 15.8645L19.6833 16.8333L22.0853 14.3854Z" fill="#CC6228" stroke="#CC6228" stroke-width="0.25" stroke-linecap="round" stroke-linejoin="round"/>
<path d="M9.35471 16.8333L11.4643 15.8645L12.3416 17.7083L12.8951 14.6562L6.94226 14.3854L9.35471 16.8333Z" fill="#CC6228" stroke="#CC6228" stroke-width="0.25" stroke-linecap="round" stroke-linejoin="round"/>
<path d="M6.94244 14.3854L9.43847 19.25L9.35486 16.8333L6.94244 14.3854Z" fill="#E27525" stroke="#E27525" stroke-width="0.25" stroke-linecap="round" stroke-linejoin="round"/>
<path d="M19.6835 16.8333L19.5895 19.25L22.0856 14.3854L19.6835 16.8333Z" fill="#E27525" stroke="#E27525" stroke-width="0.25" stroke-linecap="round" stroke-linejoin="round"/>
<path d="M12.8954 14.6562L12.3419 17.7084L13.0416 21.3125L13.1982 16.5625L12.8954 14.6562Z" fill="#E27525" stroke="#E27525" stroke-width="0.25" stroke-linecap="round" stroke-linejoin="round"/>
<path d="M16.1327 14.6562L15.8403 16.5521L15.9865 21.3125L16.6862 17.7084L16.1327 14.6562Z" fill="#E27525" stroke="#E27525" stroke-width="0.25" stroke-linecap="round" stroke-linejoin="round"/>
<path d="M16.6862 17.7084L15.9865 21.3125L16.4878 21.6667L19.5896 19.2501L19.6835 16.8334L16.6862 17.7084Z" fill="#F5841F" stroke="#F5841F" stroke-width="0.25" stroke-linecap="round" stroke-linejoin="round"/>
<path d="M9.35474 16.8334L9.43834 19.2501L12.54 21.6667L13.0413 21.3125L12.3416 17.7084L9.35474 16.8334Z" fill="#F5841F" stroke="#F5841F" stroke-width="0.25" stroke-linecap="round" stroke-linejoin="round"/>
<path d="M16.7489 24.9895L16.7802 23.9999L16.5087 23.7707H12.5193L12.2582 23.9999L12.2791 24.9895L8.93713 23.4062L10.1068 24.3645L12.4775 25.9999H16.54L18.9211 24.3645L20.0803 23.4062L16.7489 24.9895Z" fill="#C0AC9D" stroke="#C0AC9D" stroke-width="0.25" stroke-linecap="round" stroke-linejoin="round"/>
<path d="M16.4877 21.6666L15.9864 21.3125H13.0413L12.5401 21.6666L12.2581 24L12.5192 23.7708H16.5086L16.7801 24L16.4877 21.6666Z" fill="#161616" stroke="#161616" stroke-width="0.25" stroke-linecap="round" stroke-linejoin="round"/>
<path d="M27.1401 9.32289L28.0279 5.01042L26.6911 1L16.4878 8.55212L20.4145 11.8646L25.96 13.4792L27.1819 12.0521L26.6494 11.6666L27.4952 10.8959L26.8478 10.3958L27.6937 9.75L27.1401 9.32289Z" fill="#763E1A" stroke="#763E1A" stroke-width="0.25" stroke-linecap="round" stroke-linejoin="round"/>
<path d="M1 5.01042L1.89814 9.32289L1.32375 9.75L2.18012 10.3958L1.53262 10.8959L2.37854 11.6666L1.84592 12.0521L3.06782 13.4792L8.61337 11.8646L12.5401 8.55212L2.33677 1L1 5.01042Z" fill="#763E1A" stroke="#763E1A" stroke-width="0.25" stroke-linecap="round" stroke-linejoin="round"/>
<path d="M25.9601 13.4791L20.4146 11.8645L22.0856 14.3854L19.5895 19.2499L22.8897 19.2083H27.819L25.9601 13.4791Z" fill="#F5841F" stroke="#F5841F" stroke-width="0.25" stroke-linecap="round" stroke-linejoin="round"/>
<path d="M8.61322 11.8645L3.06774 13.4791L1.21924 19.2083H6.13814L9.43826 19.2499L6.94229 14.3854L8.61322 11.8645Z" fill="#F5841F" stroke="#F5841F" stroke-width="0.25" stroke-linecap="round" stroke-linejoin="round"/>
<path d="M16.1326 14.6563L16.4877 8.55209L18.0959 4.20838H10.9317L12.54 8.55209L12.8951 14.6563L13.0308 16.573L13.0413 21.3126H15.9864L15.9968 16.573L16.1326 14.6563Z" fill="#F5841F" stroke="#F5841F" stroke-width="0.25" stroke-linecap="round" stroke-linejoin="round"/>
</svg>
